M48
; DRILL file {KiCad (6.0.7)} date Wed Apr  5 06:18:19 2023
; FORMAT={-:-/ absolute / metric / decimal}
; #@! TF.CreationDate,2023-04-05T06:18:19+09:00
; #@! TF.GenerationSoftware,Kicad,Pcbnew,(6.0.7)
; #@! TF.FileFunction,MixedPlating,1,2
FMAT,2
METRIC
; #@! TA.AperFunction,Plated,PTH,ComponentDrill
T1C0.500
; #@! TA.AperFunction,Plated,PTH,ComponentDrill
T2C0.800
; #@! TA.AperFunction,Plated,PTH,ComponentDrill
T3C0.900
; #@! TA.AperFunction,Plated,PTH,ComponentDrill
T4C3.200
%
G90
G05
T1
X45.68Y-20.32
X45.68Y-21.59
X45.68Y-22.86
X53.34Y-20.32
X53.34Y-21.59
X53.34Y-22.86
T2
X7.62Y-15.24
X7.62Y-29.21
X13.84Y-12.7
X13.84Y-17.78
X13.84Y-22.86
X13.84Y-27.94
X24.0Y-12.7
X24.0Y-17.78
X24.0Y-22.86
X24.0Y-27.94
X38.1Y-15.28
X38.1Y-17.78
X38.1Y-25.44
X38.1Y-27.94
X53.34Y-15.24
X53.34Y-27.94
T3
X27.9Y-27.94
X27.94Y-17.78
X30.44Y-27.94
X30.48Y-17.78
T4
X5.08Y-5.08
X5.08Y-38.1
X57.785Y-5.08
X57.785Y-38.1
T0
M30
