%TF.GenerationSoftware,KiCad,Pcbnew,7.0.7-7.0.7~ubuntu22.04.1*%
%TF.CreationDate,2023-09-27T08:53:52+00:00*%
%TF.ProjectId,sample,73616d70-6c65-42e6-9b69-6361645f7063,rev?*%
%TF.SameCoordinates,Original*%
%TF.FileFunction,Copper,L1,Top*%
%TF.FilePolarity,Positive*%
%FSLAX46Y46*%
G04 Gerber Fmt 4.6, Leading zero omitted, Abs format (unit mm)*
G04 Created by KiCad (PCBNEW 7.0.7-7.0.7~ubuntu22.04.1) date 2023-09-27 08:53:52*
%MOMM*%
%LPD*%
G01*
G04 APERTURE LIST*
G04 Aperture macros list*
%AMRoundRect*
0 Rectangle with rounded corners*
0 $1 Rounding radius*
0 $2 $3 $4 $5 $6 $7 $8 $9 X,Y pos of 4 corners*
0 Add a 4 corners polygon primitive as box body*
4,1,4,$2,$3,$4,$5,$6,$7,$8,$9,$2,$3,0*
0 Add four circle primitives for the rounded corners*
1,1,$1+$1,$2,$3*
1,1,$1+$1,$4,$5*
1,1,$1+$1,$6,$7*
1,1,$1+$1,$8,$9*
0 Add four rect primitives between the rounded corners*
20,1,$1+$1,$2,$3,$4,$5,0*
20,1,$1+$1,$4,$5,$6,$7,0*
20,1,$1+$1,$6,$7,$8,$9,0*
20,1,$1+$1,$8,$9,$2,$3,0*%
G04 Aperture macros list end*
%TA.AperFunction,SMDPad,CuDef*%
%ADD10RoundRect,0.100000X-0.130000X-0.100000X0.130000X-0.100000X0.130000X0.100000X-0.130000X0.100000X0*%
%TD*%
%TA.AperFunction,ViaPad*%
%ADD11C,0.800000*%
%TD*%
%TA.AperFunction,Conductor*%
%ADD12C,0.250000*%
%TD*%
G04 APERTURE END LIST*
D10*
%TO.P,R1,1*%
%TO.N,Net-(R1-Pad1)*%
X22195000Y-20320000D03*
%TO.P,R1,2*%
X22835000Y-20320000D03*
%TD*%
D11*
%TO.N,Net-(R1-Pad1)*%
X27940000Y-20320000D03*
X17780000Y-20320000D03*
%TD*%
D12*
%TO.N,Net-(R1-Pad1)*%
X22835000Y-20320000D02*
X27940000Y-20320000D01*
X22195000Y-20320000D02*
X17780000Y-20320000D01*
%TD*%
%TA.AperFunction,NonConductor*%
G36*
X30422539Y-15260185D02*
G01*
X30468294Y-15312989D01*
X30479500Y-15364500D01*
X30479500Y-25275500D01*
X30459815Y-25342539D01*
X30407011Y-25388294D01*
X30355500Y-25399500D01*
X15364500Y-25399500D01*
X15297461Y-25379815D01*
X15251706Y-25327011D01*
X15240500Y-25275500D01*
X15240500Y-20320000D01*
X16874540Y-20320000D01*
X16894326Y-20508256D01*
X16894327Y-20508259D01*
X16952818Y-20688277D01*
X16952821Y-20688284D01*
X17047467Y-20852216D01*
X17149185Y-20965185D01*
X17174129Y-20992888D01*
X17327265Y-21104148D01*
X17327270Y-21104151D01*
X17500192Y-21181142D01*
X17500197Y-21181144D01*
X17685354Y-21220500D01*
X17685355Y-21220500D01*
X17874644Y-21220500D01*
X17874646Y-21220500D01*
X18059803Y-21181144D01*
X18232730Y-21104151D01*
X18385871Y-20992888D01*
X18388788Y-20989647D01*
X18391600Y-20986526D01*
X18451087Y-20949879D01*
X18483748Y-20945500D01*
X21739821Y-20945500D01*
X21787273Y-20954938D01*
X21908238Y-21005044D01*
X22025639Y-21020500D01*
X22364360Y-21020499D01*
X22364361Y-21020499D01*
X22381131Y-21018291D01*
X22481762Y-21005044D01*
X22481772Y-21005039D01*
X22482897Y-21004739D01*
X22484078Y-21004739D01*
X22489821Y-21003983D01*
X22489921Y-21004739D01*
X22540080Y-21004739D01*
X22540180Y-21003983D01*
X22545922Y-21004739D01*
X22547103Y-21004739D01*
X22548230Y-21005040D01*
X22548238Y-21005044D01*
X22665639Y-21020500D01*
X23004360Y-21020499D01*
X23004363Y-21020499D01*
X23121753Y-21005046D01*
X23121757Y-21005044D01*
X23121762Y-21005044D01*
X23242726Y-20954938D01*
X23290179Y-20945500D01*
X27236252Y-20945500D01*
X27303291Y-20965185D01*
X27328400Y-20986526D01*
X27334126Y-20992885D01*
X27334130Y-20992889D01*
X27487265Y-21104148D01*
X27487270Y-21104151D01*
X27660192Y-21181142D01*
X27660197Y-21181144D01*
X27845354Y-21220500D01*
X27845355Y-21220500D01*
X28034644Y-21220500D01*
X28034646Y-21220500D01*
X28219803Y-21181144D01*
X28392730Y-21104151D01*
X28545871Y-20992888D01*
X28672533Y-20852216D01*
X28767179Y-20688284D01*
X28825674Y-20508256D01*
X28845460Y-20320000D01*
X28825674Y-20131744D01*
X28767179Y-19951716D01*
X28672533Y-19787784D01*
X28545871Y-19647112D01*
X28545870Y-19647111D01*
X28392734Y-19535851D01*
X28392729Y-19535848D01*
X28219807Y-19458857D01*
X28219802Y-19458855D01*
X28074000Y-19427865D01*
X28034646Y-19419500D01*
X27845354Y-19419500D01*
X27812897Y-19426398D01*
X27660197Y-19458855D01*
X27660192Y-19458857D01*
X27487270Y-19535848D01*
X27487265Y-19535851D01*
X27334130Y-19647110D01*
X27334126Y-19647114D01*
X27328400Y-19653474D01*
X27268913Y-19690121D01*
X27236252Y-19694500D01*
X23290179Y-19694500D01*
X23242726Y-19685061D01*
X23121762Y-19634956D01*
X23121760Y-19634955D01*
X23004361Y-19619500D01*
X22665636Y-19619500D01*
X22548234Y-19634955D01*
X22547083Y-19635264D01*
X22545891Y-19635264D01*
X22540179Y-19636016D01*
X22540080Y-19635264D01*
X22489919Y-19635264D01*
X22489820Y-19636017D01*
X22484107Y-19635264D01*
X22482917Y-19635265D01*
X22481765Y-19634956D01*
X22364361Y-19619500D01*
X22025636Y-19619500D01*
X21908246Y-19634953D01*
X21908237Y-19634956D01*
X21787274Y-19685061D01*
X21739821Y-19694500D01*
X18483748Y-19694500D01*
X18416709Y-19674815D01*
X18391600Y-19653474D01*
X18385873Y-19647114D01*
X18385869Y-19647110D01*
X18232734Y-19535851D01*
X18232729Y-19535848D01*
X18059807Y-19458857D01*
X18059802Y-19458855D01*
X17914000Y-19427865D01*
X17874646Y-19419500D01*
X17685354Y-19419500D01*
X17652897Y-19426398D01*
X17500197Y-19458855D01*
X17500192Y-19458857D01*
X17327270Y-19535848D01*
X17327265Y-19535851D01*
X17174129Y-19647111D01*
X17047466Y-19787785D01*
X16952821Y-19951715D01*
X16952818Y-19951722D01*
X16894327Y-20131740D01*
X16894326Y-20131744D01*
X16874540Y-20320000D01*
X15240500Y-20320000D01*
X15240500Y-15364500D01*
X15260185Y-15297461D01*
X15312989Y-15251706D01*
X15364500Y-15240500D01*
X30355500Y-15240500D01*
X30422539Y-15260185D01*
G37*
%TD.AperFunction*%
M02*
