%TF.GenerationSoftware,KiCad,Pcbnew,7.0.7-7.0.7~ubuntu22.04.1*%
%TF.CreationDate,2023-09-27T08:53:52+00:00*%
%TF.ProjectId,sample,73616d70-6c65-42e6-9b69-6361645f7063,rev?*%
%TF.SameCoordinates,Original*%
%TF.FileFunction,Copper,L2,Bot*%
%TF.FilePolarity,Positive*%
%FSLAX46Y46*%
G04 Gerber Fmt 4.6, Leading zero omitted, Abs format (unit mm)*
G04 Created by KiCad (PCBNEW 7.0.7-7.0.7~ubuntu22.04.1) date 2023-09-27 08:53:52*
%MOMM*%
%LPD*%
G01*
G04 APERTURE LIST*
%TA.AperFunction,NonConductor*%
%ADD10C,0.200000*%
%TD*%
%TA.AperFunction,ViaPad*%
%ADD11C,0.800000*%
%TD*%
G04 APERTURE END LIST*
D10*
X17780000Y-20320000D02*
X27940000Y-20320000D01*
D11*
%TO.N,Net-(R1-Pad1)*%
X27940000Y-20320000D03*
X17780000Y-20320000D03*
%TD*%
%TA.AperFunction,NonConductor*%
G36*
X30422539Y-15260185D02*
G01*
X30468294Y-15312989D01*
X30479500Y-15364500D01*
X30479500Y-25275500D01*
X30459815Y-25342539D01*
X30407011Y-25388294D01*
X30355500Y-25399500D01*
X15364500Y-25399500D01*
X15297461Y-25379815D01*
X15251706Y-25327011D01*
X15240500Y-25275500D01*
X15240500Y-20320000D01*
X16874540Y-20320000D01*
X16894326Y-20508256D01*
X16894327Y-20508259D01*
X16952818Y-20688277D01*
X16952821Y-20688284D01*
X17047467Y-20852216D01*
X17174128Y-20992887D01*
X17174129Y-20992888D01*
X17327265Y-21104148D01*
X17327270Y-21104151D01*
X17500192Y-21181142D01*
X17500197Y-21181144D01*
X17685354Y-21220500D01*
X17685355Y-21220500D01*
X17874644Y-21220500D01*
X17874646Y-21220500D01*
X18059803Y-21181144D01*
X18232730Y-21104151D01*
X18385871Y-20992888D01*
X18414108Y-20961527D01*
X18473595Y-20924879D01*
X18506258Y-20920500D01*
X27213742Y-20920500D01*
X27280781Y-20940185D01*
X27305891Y-20961527D01*
X27334128Y-20992887D01*
X27334135Y-20992893D01*
X27487265Y-21104148D01*
X27487270Y-21104151D01*
X27660192Y-21181142D01*
X27660197Y-21181144D01*
X27845354Y-21220500D01*
X27845355Y-21220500D01*
X28034644Y-21220500D01*
X28034646Y-21220500D01*
X28219803Y-21181144D01*
X28392730Y-21104151D01*
X28545871Y-20992888D01*
X28672533Y-20852216D01*
X28767179Y-20688284D01*
X28825674Y-20508256D01*
X28845460Y-20320000D01*
X28825674Y-20131744D01*
X28767179Y-19951716D01*
X28672533Y-19787784D01*
X28545871Y-19647112D01*
X28545863Y-19647106D01*
X28392734Y-19535851D01*
X28392729Y-19535848D01*
X28219807Y-19458857D01*
X28219802Y-19458855D01*
X28074000Y-19427865D01*
X28034646Y-19419500D01*
X27845354Y-19419500D01*
X27812897Y-19426398D01*
X27660197Y-19458855D01*
X27660192Y-19458857D01*
X27487270Y-19535848D01*
X27487265Y-19535851D01*
X27334135Y-19647106D01*
X27334128Y-19647112D01*
X27305891Y-19678473D01*
X27246405Y-19715121D01*
X27213742Y-19719500D01*
X18506258Y-19719500D01*
X18439219Y-19699815D01*
X18414109Y-19678473D01*
X18385871Y-19647112D01*
X18385864Y-19647106D01*
X18232734Y-19535851D01*
X18232729Y-19535848D01*
X18059807Y-19458857D01*
X18059802Y-19458855D01*
X17914000Y-19427865D01*
X17874646Y-19419500D01*
X17685354Y-19419500D01*
X17652897Y-19426398D01*
X17500197Y-19458855D01*
X17500192Y-19458857D01*
X17327270Y-19535848D01*
X17327265Y-19535851D01*
X17174129Y-19647111D01*
X17047466Y-19787785D01*
X16952821Y-19951715D01*
X16952818Y-19951722D01*
X16894327Y-20131740D01*
X16894326Y-20131744D01*
X16874540Y-20320000D01*
X15240500Y-20320000D01*
X15240500Y-15364500D01*
X15260185Y-15297461D01*
X15312989Y-15251706D01*
X15364500Y-15240500D01*
X30355500Y-15240500D01*
X30422539Y-15260185D01*
G37*
%TD.AperFunction*%
M02*
